HIERARCHY
ROOT Hips
{
	OFFSET 0.000000 83.214638 0.000000
	CHANNELS 6 Xposition Yposition Zposition Xrotation Yrotation Zrotation
	JOINT Pelvis
	{
		OFFSET 0.000000 0.000000 0.000000
		CHANNELS 3 Xrotation Yrotation Zrotation
		JOINT LeftUpLeg
		{
			OFFSET 8.479700 -4.795502 -0.379100
			CHANNELS 3 Xrotation Yrotation Zrotation
			JOINT LeftLeg
			{
				OFFSET 0.024144 -32.555107 0.112900
				CHANNELS 3 Xrotation Yrotation Zrotation
				JOINT LeftFoot
				{
					OFFSET -0.024144 -32.638630 -3.012600
					CHANNELS 3 Xrotation Yrotation Zrotation
					JOINT LeftToeBase
					{
						OFFSET 0.970200 -13.225400 11.864200
						CHANNELS 3 Xrotation Yrotation Zrotation
						End Site
						{
							OFFSET 0.000000 12.319262 0.000000
						}
					}
					JOINT LFootTongue
					{
						OFFSET 1.142400 -1.059800 6.665200
						CHANNELS 3 Xrotation Yrotation Zrotation
						End Site
						{
							OFFSET 0.000000 12.319262 0.000000
						}
					}
				}
				JOINT LeftPantLeg
				{
					OFFSET 0.918482 -16.533964 -2.284700
					CHANNELS 3 Xrotation Yrotation Zrotation
					End Site
					{
						OFFSET 0.350399 24.744368 0.000000
					}
				}
			}
		}
		JOINT RightUpLeg
		{
			OFFSET -8.479700 -4.795502 -0.379100
			CHANNELS 3 Xrotation Yrotation Zrotation
			JOINT RightLeg
			{
				OFFSET -0.023144 -32.555092 0.112900
				CHANNELS 3 Xrotation Yrotation Zrotation
				JOINT RightFoot
				{
					OFFSET 0.023144 -32.638641 -3.012700
					CHANNELS 3 Xrotation Yrotation Zrotation
					JOINT RightToeBase
					{
						OFFSET -0.970200 -13.225400 11.864200
						CHANNELS 3 Xrotation Yrotation Zrotation
						End Site
						{
							OFFSET 0.000000 12.319244 0.000000
						}
					}
					JOINT RFootTongue
					{
						OFFSET -1.142200 -1.059800 6.665200
						CHANNELS 3 Xrotation Yrotation Zrotation
						End Site
						{
							OFFSET 0.000000 12.319243 0.000000
						}
					}
				}
				JOINT RightPantLeg
				{
					OFFSET -0.919482 -16.533978 -2.284800
					CHANNELS 3 Xrotation Yrotation Zrotation
					End Site
					{
						OFFSET -0.350400 24.744419 0.000000
					}
				}
			}
		}
	}
	JOINT Spine
	{
		OFFSET 0.000000 7.722000 1.166200
		CHANNELS 3 Xrotation Yrotation Zrotation
		JOINT Spine1
		{
			OFFSET 0.000000 12.024101 0.248800
			CHANNELS 3 Xrotation Yrotation Zrotation
			JOINT Spine2
			{
				OFFSET 0.000000 11.502998 -0.491200
				CHANNELS 3 Xrotation Yrotation Zrotation
				JOINT Neck
				{
					OFFSET 0.000000 18.430702 -3.123100
					CHANNELS 3 Xrotation Yrotation Zrotation
					JOINT Head
					{
						OFFSET 0.000000 9.051102 1.034000
						CHANNELS 3 Xrotation Yrotation Zrotation
						JOINT HairB
						{
							OFFSET 0.208400 24.786102 24.822300
							CHANNELS 3 Xrotation Yrotation Zrotation
							End Site
							{
								OFFSET 0.000000 32.263779 0.000000
							}
						}
						JOINT HairA
						{
							OFFSET -7.081100 24.428299 23.196600
							CHANNELS 3 Xrotation Yrotation Zrotation
							End Site
							{
								OFFSET 0.000000 32.263779 0.000000
							}
						}
						JOINT Hat
						{
							OFFSET 16.728800 15.048294 -15.439601
							CHANNELS 3 Xrotation Yrotation Zrotation
							End Site
							{
								OFFSET 0.000000 32.263779 0.000000
							}
						}
					}
				}
				JOINT LeftShoulder
				{
					OFFSET 6.197800 13.665199 -4.064700
					CHANNELS 3 Xrotation Yrotation Zrotation
					JOINT LeftArm
					{
						OFFSET 7.778100 -0.187103 -1.709300
						CHANNELS 3 Xrotation Yrotation Zrotation
						JOINT LeftForeArm
						{
							OFFSET 22.049376 0.000000 0.000000
							CHANNELS 3 Xrotation Yrotation Zrotation
							JOINT LeftHand
							{
								OFFSET 23.009392 0.000000 0.000000
								CHANNELS 3 Xrotation Yrotation Zrotation
								JOINT LeftHandThumb1
								{
									OFFSET 3.507191 -2.063065 3.133727
									CHANNELS 3 Xrotation Yrotation Zrotation
									JOINT LeftHandThumb2
									{
										OFFSET 3.101337 -1.790558 1.790558
										CHANNELS 3 Xrotation Yrotation Zrotation
										JOINT LeftHandThumb3
										{
											OFFSET 3.058640 -1.765907 1.765906
											CHANNELS 3 Xrotation Yrotation Zrotation
											End Site
											{
												OFFSET -0.415260 3.926476 -0.049563
											}
										}
									}
								}
								JOINT LeftHandIndex1
								{
									OFFSET 11.334419 -0.901459 3.706815
									CHANNELS 3 Xrotation Yrotation Zrotation
									JOINT LeftHandIndex2
									{
										OFFSET 3.283112 0.000000 0.000000
										CHANNELS 3 Xrotation Yrotation Zrotation
										JOINT LeftHandIndex3
										{
											OFFSET 3.323853 0.000000 0.000000
											CHANNELS 3 Xrotation Yrotation Zrotation
											End Site
											{
												OFFSET -1.135597 3.097809 0.402452
											}
										}
									}
								}
								JOINT LeftHandMiddle1
								{
									OFFSET 11.335861 0.000000 0.000000
									CHANNELS 3 Xrotation Yrotation Zrotation
									JOINT LeftHandMiddle2
									{
										OFFSET 3.410492 0.000000 0.000000
										CHANNELS 3 Xrotation Yrotation Zrotation
										JOINT LeftHandMiddle3
										{
											OFFSET 3.312172 0.000000 0.000000
											CHANNELS 3 Xrotation Yrotation Zrotation
											End Site
											{
												OFFSET -1.150200 3.080154 0.400270
											}
										}
									}
								}
								JOINT LeftHandRing1
								{
									OFFSET 11.514786 -0.013176 -3.003090
									CHANNELS 3 Xrotation Yrotation Zrotation
									JOINT LeftHandRing2
									{
										OFFSET 3.053307 0.000000 0.000000
										CHANNELS 3 Xrotation Yrotation Zrotation
										JOINT LeftHandRing3
										{
											OFFSET 3.295807 0.000000 0.000000
											CHANNELS 3 Xrotation Yrotation Zrotation
											End Site
											{
												OFFSET -1.281006 3.013344 0.375733
											}
										}
									}
								}
								JOINT LeftHandPinky1
								{
									OFFSET 10.518692 -0.960396 -5.730441
									CHANNELS 3 Xrotation Yrotation Zrotation
									JOINT LeftHandPinky2
									{
										OFFSET 2.861649 0.000000 0.000000
										CHANNELS 3 Xrotation Yrotation Zrotation
										JOINT LeftHandPinky3
										{
											OFFSET 2.863380 0.000000 0.000000
											CHANNELS 3 Xrotation Yrotation Zrotation
											End Site
											{
												OFFSET -0.843597 2.711159 0.369971
											}
										}
									}
								}
							}
							JOINT LSleeve
							{
								OFFSET 6.676277 -0.344902 -1.011730
								CHANNELS 3 Xrotation Yrotation Zrotation
								End Site
								{
									OFFSET 0.000000 14.885353 0.000000
								}
							}
						}
					}
				}
				JOINT RightShoulder
				{
					OFFSET -6.197800 13.665199 -4.064700
					CHANNELS 3 Xrotation Yrotation Zrotation
					JOINT RightArm
					{
						OFFSET -7.778100 -0.187103 -1.709300
						CHANNELS 3 Xrotation Yrotation Zrotation
						JOINT RightForeArm
						{
							OFFSET -22.049376 0.000000 0.000000
							CHANNELS 3 Xrotation Yrotation Zrotation
							JOINT RightHand
							{
								OFFSET -23.009392 0.000000 0.000000
								CHANNELS 3 Xrotation Yrotation Zrotation
								JOINT RightHandThumb1
								{
									OFFSET -3.507191 -2.063065 3.133727
									CHANNELS 3 Xrotation Yrotation Zrotation
									JOINT RightHandThumb2
									{
										OFFSET -3.101337 -1.790558 1.790558
										CHANNELS 3 Xrotation Yrotation Zrotation
										JOINT RightHandThumb3
										{
											OFFSET -3.058640 -1.765907 1.765906
											CHANNELS 3 Xrotation Yrotation Zrotation
											End Site
											{
												OFFSET 0.415260 3.926476 -0.049563
											}
										}
									}
								}
								JOINT RightHandIndex1
								{
									OFFSET -11.334419 -0.901459 3.706815
									CHANNELS 3 Xrotation Yrotation Zrotation
									JOINT RightHandIndex2
									{
										OFFSET -3.283112 0.000000 0.000000
										CHANNELS 3 Xrotation Yrotation Zrotation
										JOINT RightHandIndex3
										{
											OFFSET -3.323853 0.000000 0.000000
											CHANNELS 3 Xrotation Yrotation Zrotation
											End Site
											{
												OFFSET 1.135597 3.097809 0.402452
											}
										}
									}
								}
								JOINT RightHandMiddle1
								{
									OFFSET -11.335861 0.000000 0.000000
									CHANNELS 3 Xrotation Yrotation Zrotation
									JOINT RightHandMiddle2
									{
										OFFSET -3.410492 0.000000 0.000000
										CHANNELS 3 Xrotation Yrotation Zrotation
										JOINT RightHandMiddle3
										{
											OFFSET -3.312172 0.000000 0.000000
											CHANNELS 3 Xrotation Yrotation Zrotation
											End Site
											{
												OFFSET 1.150200 3.080154 0.400270
											}
										}
									}
								}
								JOINT RightHandRing1
								{
									OFFSET -11.514786 -0.013176 -3.003090
									CHANNELS 3 Xrotation Yrotation Zrotation
									JOINT RightHandRing2
									{
										OFFSET -3.053307 0.000000 0.000000
										CHANNELS 3 Xrotation Yrotation Zrotation
										JOINT RightHandRing3
										{
											OFFSET -3.295807 0.000000 0.000000
											CHANNELS 3 Xrotation Yrotation Zrotation
											End Site
											{
												OFFSET 1.281006 3.013344 0.375733
											}
										}
									}
								}
								JOINT RightHandPinky1
								{
									OFFSET -10.518692 -0.960396 -5.730441
									CHANNELS 3 Xrotation Yrotation Zrotation
									JOINT RightHandPinky2
									{
										OFFSET -2.861649 0.000000 0.000000
										CHANNELS 3 Xrotation Yrotation Zrotation
										JOINT RightHandPinky3
										{
											OFFSET -2.863380 0.000000 0.000000
											CHANNELS 3 Xrotation Yrotation Zrotation
											End Site
											{
												OFFSET 0.843597 2.711159 0.369971
											}
										}
									}
								}
							}
							JOINT RSleeve
							{
								OFFSET -6.676277 -0.344902 -1.011730
								CHANNELS 3 Xrotation Yrotation Zrotation
								End Site
								{
									OFFSET 0.000000 14.885353 0.000000
								}
							}
						}
					}
				}
				JOINT Backpack
				{
					OFFSET 0.000000 -2.471497 36.677502
					CHANNELS 3 Xrotation Yrotation Zrotation
					End Site
					{
						OFFSET 0.000000 20.427315 0.000000
					}
				}
				JOINT Hood
				{
					OFFSET 0.000000 18.754097 -10.431000
					CHANNELS 3 Xrotation Yrotation Zrotation
					JOINT Hood1
					{
						OFFSET 0.000000 -5.011002 -7.685901
						CHANNELS 3 Xrotation Yrotation Zrotation
						End Site
						{
							OFFSET 0.000000 9.175140 0.000000
						}
					}
				}
				JOINT LHoodieString
				{
					OFFSET 5.250500 16.397697 3.089900
					CHANNELS 3 Xrotation Yrotation Zrotation
					JOINT LHoodieString1
					{
						OFFSET 0.257700 -6.364304 3.694600
						CHANNELS 3 Xrotation Yrotation Zrotation
						JOINT LHoodieString2
						{
							OFFSET 0.000000 -9.643799 2.679100
							CHANNELS 3 Xrotation Yrotation Zrotation
							End Site
							{
								OFFSET 0.000000 10.009018 0.000000
							}
						}
					}
				}
				JOINT RHoodieString
				{
					OFFSET -5.250500 16.397697 3.089900
					CHANNELS 3 Xrotation Yrotation Zrotation
					JOINT RHoodieString1
					{
						OFFSET -0.257700 -6.364304 3.694600
						CHANNELS 3 Xrotation Yrotation Zrotation
						JOINT RHoodieString2
						{
							OFFSET 0.000000 -9.643799 2.679100
							CHANNELS 3 Xrotation Yrotation Zrotation
							End Site
							{
								OFFSET 0.000000 10.009018 0.000000
							}
						}
					}
				}
			}
			JOINT LBackpack_Strap
			{
				OFFSET 15.223200 -7.719803 -6.610900
				CHANNELS 3 Xrotation Yrotation Zrotation
				End Site
				{
					OFFSET 0.000000 16.040596 0.000000
				}
			}
			JOINT RBackpack_Strap
			{
				OFFSET -15.223000 -7.719803 -6.610900
				CHANNELS 3 Xrotation Yrotation Zrotation
				End Site
				{
					OFFSET 0.000000 16.040596 0.000000
				}
			}
		}
	}
	JOINT BoyFacialAnim_Joint
	{
		OFFSET 1.000000 -82.208099 -1.550900
		CHANNELS 3 Xrotation Yrotation Zrotation
		End Site
		{
			OFFSET 0.000000 30.012791 0.000000
		}
	}
}
MOTION
Frames: 5
Frame Time: 0.016667
-0.250054 70.702072 0.244963 11.695777 -49.489515 11.290278 -0.000000 -0.000001 0.000000 -64.578851 28.127595 42.221057 45.037943 -20.080988 3.175884 2.542140 0.952379 -10.119029 0.000000 0.000000 0.000000 0.000000 0.000000 0.000000 -0.000000 0.000002 -0.000000 -33.975506 -0.459154 -24.258059 53.260128 1.997312 -6.750481 -26.567272 -2.745699 24.293443 0.000000 -0.000000 -0.000000 0.000000 -0.000000 -0.000000 0.000001 -0.000000 -0.000001 10.970851 2.836720 -2.050395 6.100721 5.566535 -4.284695 -5.786930 6.328145 -3.046189 2.317271 9.363494 -0.265710 -4.145190 23.161796 -3.522661 0.000001 -0.000000 -0.000000 0.000001 -0.000000 -0.000000 0.000001 -0.000000 -0.000000 -1.915073 -16.511774 -2.939003 -10.486665 2.625045 -45.366335 -22.934664 -26.042287 -16.052449 2.486700 -2.421344 6.911734 18.458441 -9.511651 13.216062 -1.151035 11.255605 -8.390552 -0.000001 -0.000001 -0.000001 -1.232383 -5.767193 -0.192345 0.133064 -0.208719 -4.601639 -0.000003 0.000001 -0.000003 1.879036 4.660593 -4.596731 0.488067 -1.011739 -12.986311 0.000004 0.000001 0.000004 3.021291 7.938967 -14.102988 -0.721412 -0.564655 -18.895742 0.000000 0.000000 -0.000000 2.009218 6.305985 -22.386379 -0.833131 -0.206650 -16.746476 0.000000 -0.000001 -0.000000 -0.000003 -0.000003 0.000002 -5.102369 24.651548 1.530440 6.852332 -35.149963 57.689233 -21.079531 44.888908 20.017015 -0.116046 35.721210 7.538540 55.149570 18.649538 -29.698270 -0.442563 -14.180528 7.313134 0.000000 0.000001 -0.000001 5.673373 7.585025 36.844185 1.050474 3.824469 68.900237 -0.000002 0.000001 -0.000001 -0.125682 1.886085 45.000776 -1.169012 3.204647 68.417622 -0.000001 0.000000 0.000002 -5.312020 1.216626 58.508828 -0.745210 1.667577 48.011295 -0.000001 0.000000 0.000004 -7.756834 -9.376458 47.264011 -0.526026 1.541545 45.600518 0.000001 -0.000002 -0.000000 -0.000001 -0.000002 0.000000 0.000000 0.000000 -0.000000 0.000000 0.000000 -0.000000 0.000000 0.000000 -0.000000 0.000000 0.000000 -0.000000 0.000000 0.000000 0.000001 -0.000001 0.000000 0.000000 0.000000 0.000000 -0.000000 0.000000 0.000000 0.000001 -0.000001 0.000000 0.000000 0.000001 0.000001 0.000001 0.000001 0.000001 0.000001 -0.000000 -0.000001 0.000000 
-0.016932 70.791550 0.095598 11.736514 -49.373283 11.110851 -0.000001 -0.000002 0.000000 -64.740426 28.098259 42.128105 44.607508 -20.182266 3.139254 2.974831 0.976400 -9.969803 -0.000000 -0.000002 -0.000000 -0.000000 -0.000002 0.000000 -0.000000 -0.000001 -0.000000 -34.014438 -0.473639 -23.919451 52.956956 1.757133 -6.836505 -26.306830 -2.900105 24.381545 -0.000000 -0.000002 -0.000000 -0.000000 -0.000002 -0.000000 0.000003 0.000001 -0.000000 10.653490 2.876540 -1.720314 6.270520 5.497052 -4.598448 -5.595391 6.320227 -3.336131 2.640502 9.509904 -0.611380 -4.329312 23.155525 -3.472933 0.000001 0.000000 -0.000000 0.000001 0.000000 -0.000000 0.000001 0.000000 -0.000000 -1.910392 -16.163882 -3.090428 -12.030259 0.880592 -45.319166 -21.770890 -23.471165 -14.157658 2.477852 -3.270604 5.936768 18.463963 -9.514394 13.212508 -1.112710 11.306121 -8.396352 -0.000000 0.000001 0.000001 -1.232410 -5.775689 -0.414987 0.131538 -0.226374 -4.993313 -0.000001 0.000001 -0.000003 1.878187 4.643281 -4.856712 0.484488 -1.023645 -13.186615 0.000005 0.000001 -0.000002 3.018636 7.917215 -14.361929 -0.723406 -0.572756 -19.096324 -0.000001 -0.000004 -0.000001 2.005601 6.286213 -22.645482 -0.834524 -0.216339 -16.946997 0.000001 -0.000003 -0.000001 -0.000002 0.000001 -0.000001 -5.012405 24.293280 1.216170 6.254668 -34.836461 57.425635 -21.507386 44.701157 20.437174 -0.231525 33.998404 6.851884 55.149567 18.649546 -29.698281 -0.442570 -14.180523 7.313133 0.000001 -0.000001 -0.000001 5.673374 7.585027 36.844185 1.050476 3.824468 68.900244 -0.000000 0.000001 0.000004 -0.125684 1.886090 45.000776 -1.169009 3.204643 68.417622 -0.000001 0.000002 0.000000 -5.312019 1.216627 58.508835 -0.745212 1.667576 48.011302 -0.000000 0.000000 0.000000 -7.756832 -9.376456 47.264011 -0.526030 1.541548 45.600511 0.000000 -0.000003 -0.000000 0.000001 -0.000001 0.000003 0.000003 0.000003 -0.000002 0.000003 0.000003 -0.000002 0.000003 0.000003 -0.000002 0.000003 0.000003 -0.000002 0.000003 0.000003 -0.000000 0.000001 -0.000000 0.000001 0.000003 0.000003 -0.000002 0.000003 0.000003 -0.000000 0.000001 -0.000000 0.000001 -0.000000 -0.000002 0.000000 -0.000000 -0.000002 0.000000 -0.000001 -0.000002 0.000000 
0.214792 70.881065 -0.112266 11.578093 -49.327305 11.014948 -0.000001 -0.000004 0.000001 -64.614696 28.318683 41.901233 43.985698 -20.352977 3.084107 3.502684 1.107206 -9.873202 0.000000 0.000000 -0.000000 0.000000 0.000000 0.000000 -0.000000 -0.000002 0.000001 -34.079768 -0.405412 -23.794506 52.853288 1.794683 -6.924382 -26.176951 -3.080640 24.312128 -0.000000 -0.000001 0.000000 -0.000000 -0.000001 0.000000 -0.000001 -0.000000 -0.000005 10.771754 2.799105 -1.869233 6.253146 5.455827 -4.730132 -5.604865 6.319122 -3.448270 2.918538 9.797427 -0.772800 -4.285430 23.230974 -3.582199 0.000003 0.000000 0.000000 0.000003 0.000000 0.000000 0.000003 0.000000 0.000000 -1.950324 -16.377038 -3.316431 -12.793725 0.478074 -45.036188 -20.515371 -22.352262 -13.137820 2.462304 -3.387148 5.660587 18.481165 -9.516254 13.200813 -1.002057 11.451894 -8.413318 -0.000006 -0.000000 0.000001 -1.232756 -5.800253 -1.059692 0.126476 -0.277066 -6.121614 -0.000004 0.000001 -0.000005 1.875554 4.593693 -5.610065 0.475102 -1.053478 -13.766691 0.000003 -0.000002 0.000002 3.010632 7.854305 -15.112306 -0.730635 -0.599786 -19.676443 0.000002 0.000001 -0.000002 1.991123 6.229255 -23.395829 -0.839739 -0.247706 -17.526887 0.000001 0.000002 0.000000 0.000002 -0.000000 0.000001 -4.920682 23.574268 1.114868 5.639814 -34.678055 56.669666 -22.473126 45.269637 21.754021 0.157400 31.484006 5.855167 55.149570 18.649536 -29.698277 -0.442565 -14.180521 7.313133 0.000000 0.000002 0.000001 5.673372 7.585022 36.844185 1.050474 3.824471 68.900237 -0.000001 -0.000000 0.000002 -0.125684 1.886087 45.000780 -1.169012 3.204646 68.417622 0.000003 -0.000002 0.000003 -5.312022 1.216627 58.508828 -0.745210 1.667580 48.011302 -0.000000 0.000001 0.000002 -7.756829 -9.376462 47.264007 -0.526029 1.541547 45.600518 0.000001 -0.000002 0.000002 -0.000001 -0.000001 0.000001 -0.000000 -0.000002 0.000000 -0.000000 -0.000002 0.000000 -0.000000 -0.000002 0.000000 -0.000000 -0.000002 0.000000 -0.000000 -0.000002 0.000000 -0.000000 -0.000002 0.000001 -0.000000 -0.000002 0.000000 -0.000000 -0.000002 0.000000 -0.000000 -0.000002 0.000001 -0.000000 -0.000000 -0.000000 -0.000000 -0.000000 -0.000000 -0.000001 -0.000004 0.000001 
0.447374 70.970161 -0.354618 11.441068 -49.425233 10.954986 -0.000001 0.000003 -0.000000 -64.428792 28.537253 41.723266 43.307279 -20.496132 3.025746 4.051045 1.319575 -9.852054 -0.000000 0.000000 -0.000000 -0.000000 0.000000 -0.000000 0.000000 0.000001 -0.000001 -34.348738 -0.496872 -23.765355 52.847400 2.090169 -6.999002 -26.116739 -3.203505 24.095721 -0.000000 -0.000003 -0.000000 -0.000000 -0.000003 -0.000000 -0.000000 -0.000002 -0.000003 10.904837 2.685511 -2.024464 6.255485 5.389561 -4.873400 -5.586798 6.304855 -3.562655 3.088687 10.429324 -1.660137 -4.392337 23.236809 -3.332446 0.000003 0.000000 -0.000000 0.000003 0.000000 -0.000000 0.000003 0.000000 -0.000000 -2.019133 -15.755237 -4.014506 -14.105701 -0.623448 -44.437644 -18.714578 -20.851309 -11.947948 2.441574 -3.378173 5.069725 18.508522 -9.519167 13.182186 -0.822716 11.681139 -8.439623 -0.000002 -0.000001 -0.000001 -1.233364 -5.834175 -2.091543 0.116400 -0.357553 -7.916964 -0.000003 -0.000000 -0.000005 1.870192 4.511119 -6.816994 0.462232 -1.098895 -14.694423 0.000000 -0.000000 0.000000 2.992152 7.754488 -16.314025 -0.744051 -0.646169 -20.604060 -0.000003 -0.000003 -0.000001 1.966469 6.138865 -24.598163 -0.848859 -0.297636 -18.454239 0.000003 -0.000001 -0.000000 -0.000000 0.000003 -0.000000 -4.713505 23.018400 0.781703 5.134861 -34.583112 56.017035 -23.493896 45.872128 23.282993 0.566491 28.887360 4.638309 55.149570 18.649534 -29.698277 -0.442565 -14.180519 7.313135 -0.000001 0.000004 0.000000 5.673372 7.585023 36.844182 1.050471 3.824474 68.900237 0.000001 -0.000002 0.000005 -0.125680 1.886086 45.000773 -1.169010 3.204649 68.417622 0.000003 -0.000000 0.000002 -5.312020 1.216626 58.508828 -0.745209 1.667586 48.011298 -0.000002 0.000001 -0.000001 -7.756837 -9.376456 47.264007 -0.526029 1.541546 45.600511 -0.000004 -0.000001 -0.000002 -0.000002 0.000000 0.000000 0.000002 0.000000 -0.000000 0.000002 0.000000 -0.000000 0.000002 0.000000 -0.000000 0.000002 0.000000 -0.000000 0.000002 0.000000 -0.000000 0.000000 0.000000 -0.000000 0.000002 0.000000 -0.000000 0.000002 0.000000 -0.000000 0.000000 0.000000 -0.000000 0.000002 -0.000001 0.000000 0.000002 -0.000001 0.000000 -0.000001 0.000003 -0.000000 
0.674849 71.056610 -0.628483 11.508000 -50.000188 11.087468 0.000000 -0.000001 0.000000 -64.151063 28.689014 41.727378 42.622744 -20.294773 2.986639 4.514134 1.591974 -10.043916 0.000000 -0.000000 -0.000000 0.000000 -0.000000 0.000000 -0.000000 -0.000003 0.000001 -34.790241 -0.170593 -23.498137 52.882299 2.627985 -7.088546 -25.918678 -3.354461 23.940028 -0.000000 0.000000 0.000000 -0.000000 0.000000 0.000000 0.000001 -0.000002 -0.000003 10.967371 2.553689 -2.090827 6.354283 5.276298 -5.097351 -5.456689 6.268692 -3.745259 3.317678 11.210762 -2.259807 -4.432835 23.483659 -3.578623 0.000001 -0.000000 -0.000000 0.000001 -0.000000 -0.000000 0.000001 -0.000000 -0.000000 -1.995277 -14.975002 -4.449680 -15.399642 -1.800115 -44.184801 -16.719359 -18.848430 -10.461589 2.445832 -3.416930 4.703651 18.544998 -9.523101 13.157302 -0.583304 11.986401 -8.475828 0.000002 -0.000001 -0.000001 -1.235158 -5.876088 -3.475779 0.099077 -0.464184 -10.309394 0.000001 0.000003 -0.000005 1.861481 4.401141 -8.437953 0.443997 -1.159380 -15.937550 -0.000003 0.000001 -0.000005 2.964567 7.622242 -17.927884 -0.763930 -0.709164 -21.846854 0.000001 0.000000 -0.000000 1.930708 6.019430 -26.212890 -0.867933 -0.363448 -19.696831 0.000001 -0.000001 -0.000000 0.000001 -0.000001 0.000002 -4.584630 21.996486 0.859057 3.917487 -34.011077 54.545788 -24.794657 47.064313 25.390624 1.270053 25.477668 3.269677 55.149570 18.649541 -29.698277 -0.442567 -14.180523 7.313133 -0.000001 -0.000000 0.000001 5.673372 7.585027 36.844182 1.050473 3.824470 68.900237 -0.000000 -0.000002 0.000005 -0.125685 1.886093 45.000773 -1.169011 3.204651 68.417622 -0.000002 0.000000 0.000002 -5.312021 1.216629 58.508828 -0.745207 1.667586 48.011298 0.000000 0.000000 0.000000 -7.756833 -9.376455 47.264011 -0.526029 1.541541 45.600518 0.000002 -0.000001 -0.000005 0.000003 -0.000001 -0.000000 0.000001 0.000000 0.000000 0.000001 0.000000 0.000000 0.000001 0.000000 0.000000 0.000001 0.000000 0.000000 0.000001 0.000000 -0.000000 -0.000000 0.000000 -0.000000 0.000001 0.000000 0.000000 0.000001 0.000000 -0.000000 -0.000000 0.000000 -0.000000 0.000001 -0.000000 -0.000000 0.000001 -0.000000 -0.000000 0.000000 -0.000001 0.000000 
